<?xml version="1.0" encoding="iso-8859-1"?>
<!-- Generator: Adobe Illustrator 14.0.0, SVG Export Plug-In . SVG Version: 6.00 Build 43363)  -->
<!DOCTYPE svg PUBLIC "-//W3C//DTD SVG 1.1//EN" "http://www.w3.org/Graphics/SVG/1.1/DTD/svg11.dtd">
<svg version="1.1" id="Layer_1" xmlns="http://www.w3.org/2000/svg" xmlns:xlink="http://www.w3.org/1999/xlink" x="0px" y="0px"
	 width="250px" height="46px" viewBox="0 0 250 46" style="enable-background:new 0 0 250 46;" xml:space="preserve">
<g>
	<polyline style="fill-rule:evenodd;clip-rule:evenodd;fill:#EA7D09;" points="189.594,8.368 220.97,40.938 238.091,40.938 
		206.709,8.368 189.594,8.368 	"/>
	<path style="display:none;fill:#EA7D09;" d="M238.517,41.121H220.97L189.162,8.187h17.547L238.517,41.121L238.517,41.121z
		 M190.02,8.548l31.083,32.262l16.563-0.052L206.582,8.495L190.02,8.548L190.02,8.548z"/>
	<polyline style="fill-rule:evenodd;clip-rule:evenodd;fill:#F7CD30;" points="172.415,8.368 203.729,40.938 220.97,40.938 
		189.72,8.368 172.415,8.368 	"/>
	<path style="display:none;fill:#F7CD30;" d="M221.396,41.121h-17.667L171.989,8.187h17.73L221.396,41.121L221.396,41.121z
		 M172.841,8.548l31.021,32.262l16.684-0.052L189.588,8.494L172.841,8.548L172.841,8.548z"/>
	<polyline style="fill-rule:evenodd;clip-rule:evenodd;fill:#3E78DA;" points="155.357,8.368 186.74,40.938 203.855,40.938 
		172.479,8.368 155.357,8.368 	"/>
	<path style="display:none;fill:#3E78DA;" d="M204.287,41.121H186.74L154.932,8.187h17.547L204.287,41.121L204.287,41.121z
		 M155.783,8.548l31.089,32.262l16.558-0.052L172.347,8.495L155.783,8.548L155.783,8.548z"/>
	<path style="fill-rule:evenodd;clip-rule:evenodd;" d="M241.905,36.393c0.414,0,0.719,0.04,0.915,0.126
		c0.339,0.15,0.512,0.438,0.512,0.875c0,0.311-0.104,0.535-0.328,0.679c-0.115,0.08-0.271,0.132-0.483,0.167
		c0.265,0.046,0.461,0.155,0.575,0.339c0.121,0.185,0.185,0.363,0.185,0.535v0.253c0,0.081,0,0.167,0.006,0.26
		c0.006,0.092,0.017,0.149,0.034,0.178l0.018,0.04h-0.553c0-0.005,0-0.017-0.006-0.034c0-0.006-0.006-0.022-0.011-0.034
		l-0.012-0.115V39.39c0-0.402-0.098-0.667-0.311-0.794c-0.127-0.075-0.34-0.109-0.65-0.109h-0.466v1.357h-0.587v-3.451H241.905
		 M242.538,36.938c-0.144-0.086-0.386-0.132-0.708-0.132h-0.5v1.254h0.529c0.247,0,0.432-0.022,0.558-0.074
		c0.225-0.099,0.34-0.276,0.34-0.541C242.757,37.192,242.688,37.025,242.538,36.938z M244.114,40.362
		c-0.593,0.615-1.312,0.926-2.146,0.926c-0.84,0-1.56-0.311-2.146-0.926c-0.581-0.616-0.874-1.358-0.874-2.232
		c0-0.869,0.293-1.605,0.886-2.221c0.587-0.609,1.3-0.915,2.135-0.915c0.834,0,1.553,0.306,2.146,0.915
		c0.587,0.615,0.886,1.352,0.886,2.221C245,38.998,244.701,39.74,244.114,40.362z M240.128,36.214
		c-0.507,0.529-0.76,1.168-0.76,1.916c0,0.754,0.253,1.397,0.754,1.927c0.506,0.529,1.121,0.794,1.847,0.794
		c0.719,0,1.34-0.265,1.847-0.794c0.5-0.529,0.753-1.173,0.759-1.927c0-0.748-0.259-1.387-0.759-1.916
		c-0.513-0.529-1.128-0.794-1.847-0.794C241.249,35.42,240.634,35.685,240.128,36.214z"/>
	<path d="M29.563,17.513v23.011h-8.785V17.513c0.026-0.736-0.751-1.545-1.709-1.545H14.8c-0.958,0-1.734,0.809-1.734,1.804
		l-0.029,22.752H5V13.089c0-2.442,1.904-4.421,4.26-4.421h11.653c2.35,0,4.251,1.979,4.251,4.421c0-2.442,1.91-4.421,4.263-4.421
		H41.08c2.355,0,4.26,1.979,4.26,4.421v27.435h-8.037l-0.029-22.752c0-0.995-0.777-1.804-1.737-1.804h-4.263
		C30.399,15.968,29.686,16.641,29.563,17.513 M129.487,21.344h14.802v6.884h-14.451c-1.404,0-2.536,1.18-2.536,2.636
		c0,1.455,1.132,2.629,2.536,2.629h14.457V17.481c0-0.834-0.65-1.513-1.455-1.513h-21.098V8.633h26.327
		c2.354,0,4.264,1.982,4.264,4.424v27.437l-8.037-0.028h-14.808c-5.09,0-9.215-4.28-9.215-9.562
		C120.272,25.624,124.397,21.344,129.487,21.344z M56.44,21.344h14.805v6.884H56.788c-1.398,0-2.534,1.18-2.534,2.636
		c0,1.455,1.136,2.629,2.534,2.629h14.46V17.481c0-0.834-0.653-1.513-1.456-1.513H48.694V8.633h26.334
		c2.353,0,4.26,1.982,4.26,4.424v27.437l-8.04-0.028H56.44c-5.089,0-9.213-4.28-9.213-9.562
		C47.227,25.624,51.352,21.344,56.44,21.344z M109.661,8.633h9.763v7.335h-9.763V8.633z M111.168,33.159h8.307v7.335h-13.594
		c-2.353,0-4.263-1.979-4.263-4.424V4.712h8.042v26.934c0,0.834,0.65,1.513,1.453,1.513H111.168z M91.43,15.968
		c-0.863,0-1.513,0.679-1.513,1.513v23.013h-8.04V13.057c0-2.442,1.91-4.424,4.263-4.424h13.485v7.335H91.43z"/>
	<path d="M91.43,15.968c-0.863,0-1.513,0.679-1.513,1.513v23.013h-8.04V13.057c0-2.442,1.91-4.424,4.263-4.424h13.485v7.335H91.43"
		/>
	<path d="M111.168,33.159h8.307v7.335h-13.594c-2.353,0-4.263-1.979-4.263-4.424V4.712h8.042v26.934c0,0.834,0.65,1.513,1.453,1.513
		H111.168"/>
	<rect x="109.661" y="8.633" width="9.763" height="7.335"/>
	<path d="M56.44,21.344h14.805v6.884H56.788c-1.398,0-2.534,1.18-2.534,2.636c0,1.455,1.136,2.629,2.534,2.629h14.46V17.481
		c0-0.834-0.653-1.513-1.456-1.513H48.694V8.633h26.334c2.353,0,4.26,1.982,4.26,4.424v27.437l-8.04-0.028H56.44
		c-5.089,0-9.213-4.28-9.213-9.562C47.227,25.624,51.352,21.344,56.44,21.344"/>
	<path d="M129.487,21.344h14.802v6.884h-14.451c-1.404,0-2.536,1.18-2.536,2.636c0,1.455,1.132,2.629,2.536,2.629h14.457V17.481
		c0-0.834-0.65-1.513-1.455-1.513h-21.098V8.633h26.327c2.354,0,4.264,1.982,4.264,4.424v27.437l-8.037-0.028h-14.808
		c-5.09,0-9.215-4.28-9.215-9.562C120.272,25.624,124.397,21.344,129.487,21.344"/>
	<path d="M29.563,17.513v23.011h-8.785V17.513c0.026-0.736-0.751-1.545-1.709-1.545H14.8c-0.958,0-1.734,0.809-1.734,1.804
		l-0.029,22.752H5V13.089c0-2.442,1.904-4.421,4.26-4.421h11.653c2.35,0,4.251,1.979,4.251,4.421c0-2.442,1.91-4.421,4.263-4.421
		H41.08c2.355,0,4.26,1.979,4.26,4.421v27.435h-8.037l-0.029-22.752c0-0.995-0.777-1.804-1.737-1.804h-4.263
		C30.399,15.968,29.686,16.641,29.563,17.513"/>
	<path style="fill-rule:evenodd;clip-rule:evenodd;" d="M91.43,15.968h8.195V8.633H86.14c-2.353,0-4.263,1.982-4.263,4.424v27.437
		h8.04V17.481c0-0.834,0.65-1.513,1.456-1.513H91.43"/>
	<path style="fill-rule:evenodd;clip-rule:evenodd;" d="M111.168,33.159h8.307v7.335h-13.594c-2.353,0-4.263-1.979-4.263-4.424
		V4.712h8.042v26.934c0,0.834,0.65,1.513,1.453,1.513H111.168"/>
	<rect x="109.661" y="8.633" width="9.763" height="7.335"/>
	<path style="fill-rule:evenodd;clip-rule:evenodd;" d="M69.735,15.968H48.694V8.633h26.334c2.353,0,4.26,1.982,4.26,4.424v27.437
		h-8.04V17.481c0-0.834-0.653-1.513-1.456-1.513H69.735"/>
	<path style="fill-rule:evenodd;clip-rule:evenodd;" d="M56.44,21.344c-5.089,0-9.213,4.28-9.213,9.56
		c0,5.281,4.125,9.562,9.213,9.562h14.808v-6.973h-14.46c-1.398,0-2.534-1.174-2.534-2.629c0-1.456,1.136-2.636,2.534-2.636h14.458
		v-6.884H56.44"/>
	<path style="fill-rule:evenodd;clip-rule:evenodd;" d="M142.782,15.968h-21.041V8.633h26.327c2.354,0,4.264,1.982,4.264,4.424
		v27.437h-8.037V17.481c0-0.834-0.65-1.513-1.455-1.513H142.782"/>
	<path style="fill-rule:evenodd;clip-rule:evenodd;" d="M129.487,21.344c-5.09,0-9.215,4.28-9.215,9.56
		c0,5.281,4.125,9.562,9.215,9.562h14.808v-6.973h-14.457c-1.404,0-2.536-1.174-2.536-2.629c0-1.456,1.132-2.636,2.536-2.636h14.451
		v-6.884H129.487"/>
	<path style="fill-rule:evenodd;clip-rule:evenodd;" d="M20.775,17.533V40.54h4.392V13.109c0-2.442-1.904-4.421-4.257-4.421H9.26
		C6.904,8.688,5,10.667,5,13.109V40.54h8.034l0.029-22.751c0-0.992,0.777-1.8,1.734-1.8h4.271c0.958,0,1.735,0.808,1.735,1.8
		L20.775,17.533"/>
	<path style="fill-rule:evenodd;clip-rule:evenodd;" d="M29.56,17.533V40.54h-4.398V13.109c0-2.442,1.91-4.421,4.263-4.421h11.65
		c2.35,0,4.26,1.979,4.26,4.421V40.54h-8.04l-0.026-22.751c0-0.992-0.78-1.8-1.737-1.8h-4.266c-0.958,0-1.734,0.808-1.734,1.8
		L29.56,17.533"/>
	<path d="M29.563,17.513v23.011h-8.785V17.513c0.026-0.736-0.751-1.545-1.709-1.545H14.8c-0.958,0-1.734,0.809-1.734,1.804
		l-0.029,22.752H5V13.089c0-2.442,1.904-4.421,4.26-4.421h11.653c2.35,0,4.251,1.979,4.251,4.421c0-2.442,1.91-4.421,4.263-4.421
		H41.08c2.355,0,4.26,1.979,4.26,4.421v27.435h-8.037l-0.029-22.752c0-0.995-0.777-1.804-1.737-1.804h-4.263
		C30.399,15.968,29.686,16.641,29.563,17.513 M129.487,21.344h14.802v6.884h-14.451c-1.404,0-2.536,1.18-2.536,2.636
		c0,1.455,1.132,2.629,2.536,2.629h14.457V17.481c0-0.834-0.65-1.513-1.455-1.513h-21.098V8.633h26.327
		c2.354,0,4.264,1.982,4.264,4.424v27.437l-8.037-0.028h-14.808c-5.09,0-9.215-4.28-9.215-9.562
		C120.272,25.624,124.397,21.344,129.487,21.344z M56.44,21.344h14.805v6.884H56.788c-1.398,0-2.534,1.18-2.534,2.636
		c0,1.455,1.136,2.629,2.534,2.629h14.46V17.481c0-0.834-0.653-1.513-1.456-1.513H48.694V8.633h26.334
		c2.353,0,4.26,1.982,4.26,4.424v27.437l-8.04-0.028H56.44c-5.089,0-9.213-4.28-9.213-9.562
		C47.227,25.624,51.352,21.344,56.44,21.344z M109.661,8.633h9.763v7.335h-9.763V8.633z M111.168,33.159h8.307v7.335h-13.594
		c-2.353,0-4.263-1.979-4.263-4.424V4.712h8.042v26.934c0,0.834,0.65,1.513,1.453,1.513H111.168z M91.43,15.968
		c-0.863,0-1.513,0.679-1.513,1.513v23.013h-8.04V13.057c0-2.442,1.91-4.424,4.263-4.424h13.485v7.335H91.43z"/>
	<path d="M91.43,15.968c-0.863,0-1.513,0.679-1.513,1.513v23.013h-8.04V13.057c0-2.442,1.91-4.424,4.263-4.424h13.485v7.335H91.43"
		/>
	<path d="M111.168,33.159h8.307v7.335h-13.594c-2.353,0-4.263-1.979-4.263-4.424V4.712h8.042v26.934c0,0.834,0.65,1.513,1.453,1.513
		H111.168"/>
	<rect x="109.661" y="8.633" width="9.763" height="7.335"/>
	<path d="M56.44,21.344h14.805v6.884H56.788c-1.398,0-2.534,1.18-2.534,2.636c0,1.455,1.136,2.629,2.534,2.629h14.46V17.481
		c0-0.834-0.653-1.513-1.456-1.513H48.694V8.633h26.334c2.353,0,4.26,1.982,4.26,4.424v27.437l-8.04-0.028H56.44
		c-5.089,0-9.213-4.28-9.213-9.562C47.227,25.624,51.352,21.344,56.44,21.344"/>
	<path d="M129.487,21.344h14.802v6.884h-14.451c-1.404,0-2.536,1.18-2.536,2.636c0,1.455,1.132,2.629,2.536,2.629h14.457V17.481
		c0-0.834-0.65-1.513-1.455-1.513h-21.098V8.633h26.327c2.354,0,4.264,1.982,4.264,4.424v27.437l-8.037-0.028h-14.808
		c-5.09,0-9.215-4.28-9.215-9.562C120.272,25.624,124.397,21.344,129.487,21.344"/>
	<path d="M29.563,17.513v23.011h-8.785V17.513c0.026-0.736-0.751-1.545-1.709-1.545H14.8c-0.958,0-1.734,0.809-1.734,1.804
		l-0.029,22.752H5V13.089c0-2.442,1.904-4.421,4.26-4.421h11.653c2.35,0,4.251,1.979,4.251,4.421c0-2.442,1.91-4.421,4.263-4.421
		H41.08c2.355,0,4.26,1.979,4.26,4.421v27.435h-8.037l-0.029-22.752c0-0.995-0.777-1.804-1.737-1.804h-4.263
		C30.399,15.968,29.686,16.641,29.563,17.513"/>
</g>
</svg>
